<svg width="512" height="512" viewBox="0 0 512 512" fill="none" xmlns="http://www.w3.org/2000/svg">
  <defs>
    <linearGradient id="gradient" x1="0%" y1="0%" x2="100%" y2="100%">
      <stop offset="0%" style="stop-color:#8b5cf6;stop-opacity:1" />
      <stop offset="100%" style="stop-color:#3b82f6;stop-opacity:1" />
    </linearGradient>
  </defs>
  <rect width="512" height="512" rx="128" fill="url(#gradient)"/>
  <path d="M365.5 146.5C332.5 113.5 287 96 240 96C144 96 64 176 64 272C64 368 144 448 240 448C287 448 332.5 430.5 365.5 397.5C398.5 364.5 416 319 416 272C416 225 398.5 179.5 365.5 146.5ZM240 400C171 400 112 341 112 272C112 203 171 144 240 144C262.5 144 284 150.5 302 162C268.5 185.5 248 224.5 248 272C248 319.5 268.5 358.5 302 382C284 393.5 262.5 400 240 400Z" fill="white"/>
</svg>
